<svg xmlns="http://www.w3.org/2000/svg" version="1.1" xmlns:xlink="http://www.w3.org/1999/xlink" xmlns:svgjs="http://svgjs.dev/svgjs" width="1440" height="560" preserveAspectRatio="none" viewBox="0 0 1440 560"><g mask="url(&quot;#SvgjsMask1534&quot;)" fill="none"><rect width="1440" height="560" x="0" y="0" fill="url(&quot;#SvgjsLinearGradient1535&quot;)"></rect><path d="M1440 0L1147.34 0L1440 103.14z" fill="rgba(255, 255, 255, .1)"></path><path d="M1147.34 0L1440 103.14L1440 144.86L809.4299999999998 0z" fill="rgba(255, 255, 255, .075)"></path><path d="M809.43 0L1440 144.86L1440 297.85L578.3699999999999 0z" fill="rgba(255, 255, 255, .05)"></path><path d="M578.3699999999999 0L1440 297.85L1440 325.05L358.1899999999999 0z" fill="rgba(255, 255, 255, .025)"></path><path d="M0 560L350.74 560L0 384.25z" fill="rgba(0, 0, 0, .1)"></path><path d="M0 384.25L350.74 560L598.9200000000001 560L0 320.9z" fill="rgba(0, 0, 0, .075)"></path><path d="M0 320.9L598.9200000000001 560L1105.64 560L0 287.74z" fill="rgba(0, 0, 0, .05)"></path><path d="M0 287.74L1105.64 560L1203.0100000000002 560L0 240.25z" fill="rgba(0, 0, 0, .025)"></path></g><defs><mask id="SvgjsMask1534"><rect width="1440" height="560" fill="#ffffff"></rect></mask><linearGradient x1="15.28%" y1="-39.29%" x2="84.72%" y2="139.29%" gradientUnits="userSpaceOnUse" id="SvgjsLinearGradient1535"><stop stop-color="#0e2a47" offset="0"></stop><stop stop-color="rgba(0, 12, 28, 1)" offset="1"></stop></linearGradient></defs></svg>